<svg xmlns="http://www.w3.org/2000/svg" viewBox="0 0 48 48"><title>26-Social media</title><g id="_26-Social_media" data-name="26-Social media"><path d="M34,42H1a1,1,0,0,1-1-1V17a1,1,0,0,1,1-1H5v2H2V40H34Z"/><path d="M40,27H38V18H35V16h4a1,1,0,0,1,1,1Z"/><path d="M25,48H15a1,1,0,0,1-1-1V41a1,1,0,0,1,1-1H25a1,1,0,0,1,1,1v6A1,1,0,0,1,25,48Zm-9-2h8V42H16Z"/><rect x="12" y="46" width="16" height="2"/><rect x="1" y="32" width="33" height="2"/><rect x="19" y="36" width="2" height="2"/><path d="M20,30a1,1,0,0,1-.707-.293L14.586,25H9a5.006,5.006,0,0,1-5-5V5A5.006,5.006,0,0,1,9,0H31a5.006,5.006,0,0,1,5,5V20a5.006,5.006,0,0,1-5,5H21v4a1,1,0,0,1-.617.924A.987.987,0,0,1,20,30ZM9,2A3,3,0,0,0,6,5V20a3,3,0,0,0,3,3h6a1,1,0,0,1,.707.293L19,26.586V24a1,1,0,0,1,1-1H31a3,3,0,0,0,3-3V5a3,3,0,0,0-3-3Z"/><path d="M45,48H36a3,3,0,0,1-3-3V29a3,3,0,0,1,3-3h9a3,3,0,0,1,3,3V45A3,3,0,0,1,45,48ZM36,28a1,1,0,0,0-1,1V45a1,1,0,0,0,1,1h9a1,1,0,0,0,1-1V29a1,1,0,0,0-1-1Z"/><rect x="34" y="30" width="13" height="2"/><rect x="34" y="42" width="13" height="2"/><path d="M20,19a1,1,0,0,1-.641-.232l-6-5A4.385,4.385,0,0,1,13.3,7.283a4.457,4.457,0,0,1,6.394,0l.3.3.293-.293a4.462,4.462,0,0,1,6.4-.01,4.385,4.385,0,0,1,0,6.434l-6.056,5.051A1,1,0,0,1,20,19ZM16.5,7.929a2.586,2.586,0,0,0-1.806.788,2.389,2.389,0,0,0,0,3.566L20,16.7l5.359-4.467A2.46,2.46,0,0,0,26.1,10.5a2.5,2.5,0,0,0-.8-1.783,2.461,2.461,0,0,0-3.606,0l-.99.99a1,1,0,0,1-1.414,0l-1-1A2.565,2.565,0,0,0,16.5,7.929Z"/><rect x="40" y="34" width="4" height="2"/><rect x="37" y="38" width="4" height="2"/></g></svg>